<svg width="324" height="37" viewBox="0 0 324 37" fill="none" xmlns="http://www.w3.org/2000/svg">
<path d="M9.77 2.195C12.23 2.195 14.36 2.615 16.16 3.455C17.99 4.295 19.4 5.495 20.39 7.055C21.41 8.615 21.92 10.52 21.92 12.77C21.92 14.09 21.725 15.395 21.335 16.685C20.945 17.975 20.3 19.145 19.4 20.195C18.53 21.245 17.375 22.085 15.935 22.715C14.495 23.345 12.71 23.66 10.58 23.66H5.81V35H0.5V2.195H9.77ZM10.49 18.53C12.05 18.53 13.25 18.23 14.09 17.63C14.96 17 15.56 16.25 15.89 15.38C16.25 14.51 16.43 13.7 16.43 12.95C16.43 12.44 16.34 11.87 16.16 11.24C15.98 10.61 15.68 9.995 15.26 9.395C14.84 8.795 14.255 8.3 13.505 7.91C12.785 7.52 11.855 7.325 10.715 7.325H5.81V18.53H10.49ZM16.205 21.725L24.575 35H18.365L9.86 21.86L16.205 21.725ZM30.6904 2.195H52.4704V7.325H36.0004V15.965H50.6704V21.095H36.0004V29.87H53.1004V35H30.6904V2.195ZM77.5885 8.99C76.3885 8.36 75.1285 7.835 73.8085 7.415C72.5185 6.965 71.2735 6.74 70.0735 6.74C68.4535 6.74 67.1785 7.1 66.2485 7.82C65.3185 8.51 64.8535 9.5 64.8535 10.79C64.8535 11.66 65.1685 12.425 65.7985 13.085C66.4585 13.745 67.2985 14.33 68.3185 14.84C69.3385 15.35 70.4185 15.815 71.5585 16.235C72.8785 16.715 74.1535 17.33 75.3835 18.08C76.6435 18.8 77.6635 19.79 78.4435 21.05C79.2535 22.28 79.6585 23.93 79.6585 26C79.6585 27.71 79.2235 29.285 78.3535 30.725C77.4835 32.135 76.2385 33.26 74.6185 34.1C72.9985 34.94 71.0185 35.36 68.6785 35.36C66.6685 35.36 64.7035 35.045 62.7835 34.415C60.8935 33.755 59.1985 32.915 57.6985 31.895L60.0835 27.71C61.1635 28.52 62.4535 29.225 63.9535 29.825C65.4835 30.395 66.8935 30.68 68.1835 30.68C69.1435 30.68 70.0735 30.53 70.9735 30.23C71.8735 29.93 72.6235 29.435 73.2235 28.745C73.8235 28.055 74.1235 27.14 74.1235 26C74.1235 25.1 73.8535 24.32 73.3135 23.66C72.8035 23 72.1135 22.43 71.2435 21.95C70.4035 21.47 69.4885 21.035 68.4985 20.645C67.4785 20.255 66.4285 19.82 65.3485 19.34C64.2985 18.86 63.3235 18.275 62.4235 17.585C61.5235 16.865 60.7885 15.995 60.2185 14.975C59.6485 13.925 59.3635 12.665 59.3635 11.195C59.3635 9.365 59.7835 7.79 60.6235 6.47C61.4635 5.12 62.6335 4.07 64.1335 3.32C65.6335 2.54 67.3435 2.105 69.2635 2.015C71.6035 2.015 73.5835 2.3 75.2035 2.87C76.8535 3.44 78.3085 4.115 79.5685 4.895L77.5885 8.99ZM90.0549 2.195L100.315 27.755L97.2549 27.17L106.795 2.195H113.095L98.3799 36.53L83.7099 2.195H90.0549ZM119.24 2.195H141.02V7.325H124.55V15.965H139.22V21.095H124.55V29.87H141.65V35H119.24V2.195ZM158.173 2.195C160.633 2.195 162.763 2.615 164.563 3.455C166.393 4.295 167.803 5.495 168.793 7.055C169.813 8.615 170.323 10.52 170.323 12.77C170.323 14.09 170.128 15.395 169.738 16.685C169.348 17.975 168.703 19.145 167.803 20.195C166.933 21.245 165.778 22.085 164.338 22.715C162.898 23.345 161.113 23.66 158.983 23.66H154.213V35H148.903V2.195H158.173ZM158.893 18.53C160.453 18.53 161.653 18.23 162.493 17.63C163.363 17 163.963 16.25 164.293 15.38C164.653 14.51 164.833 13.7 164.833 12.95C164.833 12.44 164.743 11.87 164.563 11.24C164.383 10.61 164.083 9.995 163.663 9.395C163.243 8.795 162.658 8.3 161.908 7.91C161.188 7.52 160.258 7.325 159.118 7.325H154.213V18.53H158.893ZM164.608 21.725L172.978 35H166.768L158.263 21.86L164.608 21.725ZM175.629 35L190.164 0.889999H190.479L205.014 35H198.849L188.724 9.215L192.549 6.65L180.894 35H175.629ZM184.809 22.85H195.924L197.769 27.395H183.189L184.809 22.85ZM205.626 2.195H227.586V7.325H219.126V35H213.816V7.325H205.626V2.195ZM243.471 2.195C245.931 2.195 248.061 2.615 249.861 3.455C251.691 4.295 253.101 5.495 254.091 7.055C255.111 8.615 255.621 10.52 255.621 12.77C255.621 14.09 255.426 15.395 255.036 16.685C254.646 17.975 254.001 19.145 253.101 20.195C252.231 21.245 251.076 22.085 249.636 22.715C248.196 23.345 246.411 23.66 244.281 23.66H239.511V35H234.201V2.195H243.471ZM244.191 18.53C245.751 18.53 246.951 18.23 247.791 17.63C248.661 17 249.261 16.25 249.591 15.38C249.951 14.51 250.131 13.7 250.131 12.95C250.131 12.44 250.041 11.87 249.861 11.24C249.681 10.61 249.381 9.995 248.961 9.395C248.541 8.795 247.956 8.3 247.206 7.91C246.486 7.52 245.556 7.325 244.416 7.325H239.511V18.53H244.191ZM249.906 21.725L258.276 35H252.066L243.561 21.86L249.906 21.725ZM261.488 18.62C261.488 16.37 261.923 14.24 262.793 12.23C263.663 10.19 264.863 8.405 266.393 6.875C267.923 5.315 269.693 4.085 271.703 3.185C273.743 2.285 275.903 1.835 278.183 1.835C280.493 1.835 282.653 2.285 284.663 3.185C286.703 4.085 288.503 5.315 290.063 6.875C291.623 8.405 292.838 10.19 293.708 12.23C294.578 14.24 295.013 16.37 295.013 18.62C295.013 20.96 294.578 23.135 293.708 25.145C292.838 27.155 291.623 28.94 290.063 30.5C288.503 32.03 286.703 33.23 284.663 34.1C282.653 34.94 280.493 35.36 278.183 35.36C275.903 35.36 273.743 34.94 271.703 34.1C269.693 33.23 267.923 32.045 266.393 30.545C264.863 29.015 263.663 27.23 262.793 25.19C261.923 23.15 261.488 20.96 261.488 18.62ZM266.978 18.665C266.978 20.795 267.473 22.745 268.463 24.515C269.483 26.255 270.848 27.65 272.558 28.7C274.298 29.72 276.233 30.23 278.363 30.23C280.463 30.23 282.353 29.72 284.033 28.7C285.713 27.65 287.048 26.255 288.038 24.515C289.028 22.745 289.523 20.78 289.523 18.62C289.523 16.46 289.013 14.495 287.993 12.725C287.003 10.955 285.653 9.56 283.943 8.54C282.233 7.49 280.328 6.965 278.228 6.965C276.128 6.965 274.223 7.49 272.513 8.54C270.803 9.59 269.453 11 268.463 12.77C267.473 14.54 266.978 16.505 266.978 18.665ZM302.009 2.195H307.319V29.87H323.429V35H302.009V2.195Z" fill="#481D38"/>
</svg>
